<svg xmlns="http://www.w3.org/2000/svg" width="48" height="44.125" viewBox="0 0 48 44.125">
  <g>
    <circle cx="36.306" cy="20.311" r="0.727" fill="#1a171b"/>
    <circle cx="37.276" cy="23.22" r="0.727" fill="#1a171b"/>
    <circle cx="34.366" cy="22.25" r="0.727" fill="#1a171b"/>
    <circle cx="26.096" cy="11.241" r="0.727" fill="#1a171b"/>
    <circle cx="23.162" cy="12.135" r="0.727" fill="#1a171b"/>
    <circle cx="24.207" cy="9.252" r="0.727" fill="#1a171b"/>
    <circle cx="14.768" cy="22.193" r="0.727" fill="#1a171b"/>
    <circle cx="11.877" cy="23.217" r="0.727" fill="#1a171b"/>
    <circle cx="12.792" cy="20.29" r="0.728" fill="#1a171b"/>
    <path d="M29.181,8.351a.488.488,0,0,1-.385-.259.4.4,0,0,1,.012-.393,2.234,2.234,0,0,0-.667-3.174,2.363,2.363,0,0,0-3.608.51.433.433,0,0,1-.378.188.423.423,0,0,1-.346-.239A2.277,2.277,0,0,0,20.58,3.771,2.363,2.363,0,0,0,19.3,7.113a.387.387,0,0,1-.037.379.459.459,0,0,1-.409.207A2.15,2.15,0,0,0,16.421,9.8,2.482,2.482,0,0,0,18.805,12.7a.477.477,0,0,1,.384.258.4.4,0,0,1-.012.4,2.229,2.229,0,0,0,.665,3.172,2.4,2.4,0,0,0,3.621-.452.419.419,0,0,1,.725.059,2.38,2.38,0,0,0,2.067,1.435,2.629,2.629,0,0,0,1.147-.288,2.379,2.379,0,0,0,1.326-3.328.371.371,0,0,1,.039-.363.482.482,0,0,1,.4-.21,2.133,2.133,0,0,0,2.393-2.132A2.479,2.479,0,0,0,29.181,8.351Zm.011,3.567a2.025,2.025,0,0,0-1.632.852,1.835,1.835,0,0,0-.17,1.746c.25.587.233,1.035-.622,1.449-.407.2-.84.316-1.3-.535a1.89,1.89,0,0,0-1.517-.993c-.047,0-.094,0-.141,0a1.887,1.887,0,0,0-1.5.753c-.4.524-.808.731-1.618.151-.511-.365-.576-.7-.25-1.266a1.863,1.863,0,0,0,.048-1.773,1.935,1.935,0,0,0-1.518-1.047c-.85-.1-1.157-.475-1.1-1.346.035-.5.188-.775.937-.75a1.953,1.953,0,0,0,1.655-.848,1.844,1.844,0,0,0,.163-1.776c-.307-.7-.147-1.094.587-1.45.4-.2.835-.309,1.312.588A1.867,1.867,0,0,0,25.7,5.9c.394-.535.8-.752,1.589-.186.512.365.577.7.251,1.269A1.861,1.861,0,0,0,27.5,8.749,1.934,1.934,0,0,0,29.016,9.8c.848.1,1.153.475,1.094,1.346C30.075,11.654,29.9,11.9,29.192,11.918Z" fill="#1a171b"/>
    <path d="M47.275,24.244H45.944c.072-.723.118-1.449.118-2.183a22.061,22.061,0,0,0-44.122,0c0,.733.046,1.46.118,2.183H.728a.727.727,0,1,0,0,1.454H2.251a22.118,22.118,0,0,0,9.074,14.416.733.733,0,0,0,.419.132H36.256a.728.728,0,0,0,.419-.132A22.116,22.116,0,0,0,45.75,25.7h1.523a.727.727,0,0,0,0-1.454ZM36.025,38.791H11.978A20.639,20.639,0,0,1,8.333,35.4H39.67A20.533,20.533,0,0,1,36.025,38.791Zm7.328-9.7H40.4a.728.728,0,1,0,0,1.455h2.348A21.09,21.09,0,0,1,40.8,33.943H7.2a21.053,21.053,0,0,1-1.948-3.395H10.2a.728.728,0,1,0,0-1.455H4.65a20.292,20.292,0,0,1-.929-3.4H7a2.486,2.486,0,0,0,.658,1.331,2.4,2.4,0,0,0,3.634.335.413.413,0,0,1,.405-.1.426.426,0,0,1,.29.309,2.28,2.28,0,0,0,2.2,1.9,2.906,2.906,0,0,0,.691-.087,2.384,2.384,0,0,0,1.995-3.033.324.324,0,0,1,.1-.307.413.413,0,0,1,.4-.108,2.372,2.372,0,0,0,1.941-.239H29.929c.041.069.073.138.122.206a2.4,2.4,0,0,0,3.574.767.417.417,0,0,1,.407-.045.425.425,0,0,1,.248.338,2.261,2.261,0,0,0,2.287,2.178,3.6,3.6,0,0,0,.368-.021,2.388,2.388,0,0,0,2.347-2.787.31.31,0,0,1,.137-.281.425.425,0,0,1,.4-.059,2.217,2.217,0,0,0,2.409-.295h2.052A19.751,19.751,0,0,1,43.353,29.093ZM10.572,17.485c-.17-.779.067-1.143.874-1.336.434-.1.882-.124,1.155.854a1.867,1.867,0,0,0,3.058.905c.5-.439.938-.565,1.592.157.368.409.478.758-.057,1.326a1.808,1.808,0,0,0-.432,1.693,1.89,1.89,0,0,0,1.253,1.328,1.073,1.073,0,0,1,.823,1.562c-.146.5-.366.741-1.105.552a1.88,1.88,0,0,0-1.76.469,1.779,1.779,0,0,0-.523,1.652c.159.769-.087,1.127-.909,1.324-.437.105-.887.132-1.159-.8a1.89,1.89,0,0,0-1.268-1.294,1.8,1.8,0,0,0-.533-.079,1.9,1.9,0,0,0-1.231.458c-.5.427-.948.54-1.613-.2-.368-.408-.477-.754.057-1.322a1.8,1.8,0,0,0,.435-1.693,1.879,1.879,0,0,0-1.252-1.328,1.076,1.076,0,0,1-.827-1.564c.121-.416.288-.738,1.12-.521a1.87,1.87,0,0,0,1.782-.461A1.789,1.789,0,0,0,10.572,17.485Zm21.534,4.648a1.869,1.869,0,0,0-1.081-1.465,1.08,1.08,0,0,1-.641-1.658c.171-.4.379-.705,1.184-.377a1.886,1.886,0,0,0,1.82-.238,1.773,1.773,0,0,0,.717-1.6c-.077-.8.2-1.135,1.03-1.229.441-.056.892-.017,1.044,1a1.858,1.858,0,0,0,2.915,1.263c.551-.385,1.007-.459,1.57.342.317.453.383.814-.225,1.318a1.788,1.788,0,0,0-.634,1.621,1.869,1.869,0,0,0,1.08,1.463,1.078,1.078,0,0,1,.639,1.656c-.208.484-.457.689-1.174.41a1.862,1.862,0,0,0-1.8.248,1.769,1.769,0,0,0-.715,1.572c.068.79-.22,1.119-1.063,1.217-.449.052-.9.021-1.055-.943a1.884,1.884,0,0,0-1.1-1.438,1.847,1.847,0,0,0-.742-.156,1.909,1.909,0,0,0-1.051.32c-.553.365-1.01.426-1.583-.389-.316-.451-.381-.812.226-1.313A1.789,1.789,0,0,0,32.106,22.133Zm12.379,2.111H43.053A2.44,2.44,0,0,0,41.5,21.25a.428.428,0,0,1-.248-.332.334.334,0,0,1,.121-.313,2.243,2.243,0,0,0,.486-3.271,2.364,2.364,0,0,0-3.589-.7.4.4,0,0,1-.648-.28,2.28,2.28,0,0,0-2.647-2.23,2.371,2.371,0,0,0-2.313,2.814.321.321,0,0,1-.139.295.419.419,0,0,1-.405.056,2.16,2.16,0,0,0-3.065,1.15,2.492,2.492,0,0,0,1.367,3.554.427.427,0,0,1,.248.332.334.334,0,0,1-.121.314,2.487,2.487,0,0,0-.97,1.609H20.264a2.468,2.468,0,0,0-1.8-3.217.436.436,0,0,1-.292-.306.346.346,0,0,1,.084-.335,2.242,2.242,0,0,0,.075-3.3,2.362,2.362,0,0,0-3.634-.274.415.415,0,0,1-.7-.2,2.275,2.275,0,0,0-2.894-1.877,2.37,2.37,0,0,0-1.958,3.059.33.33,0,0,1-.1.32.441.441,0,0,1-.4.106,2.158,2.158,0,0,0-2.889,1.519,2.488,2.488,0,0,0,1.773,3.354.441.441,0,0,1,.293.307.349.349,0,0,1-.085.337,3.335,3.335,0,0,0-.387.508H3.517a20.3,20.3,0,0,1-.123-2.183,20.606,20.606,0,1,1,41.211,0A19.785,19.785,0,0,1,44.485,24.244Z" fill="#1a171b"/>
    <path d="M34.183,42.67H13.82a.728.728,0,1,0,0,1.455H34.183a.728.728,0,1,0,0-1.455Z" fill="#1a171b"/>
    <path d="M32.24,29.093H18.673a.728.728,0,1,0,0,1.455H32.24a.728.728,0,1,0,0-1.455Z" fill="#1a171b"/>
  </g>
</svg>
